TITLE ""
FILE "P1Q_t_1101-1109.mp3" MP3
  TRACK 01 AUDIO
    TITLE "P1Q_t_1101-1109_01"
    INDEX 01 00:00:00
  TRACK 02 AUDIO
    TITLE "P1Q_t_1101-1109_02"
    INDEX 01 00:01:53
  TRACK 03 AUDIO
    TITLE "P1Q_t_1101-1109_03"
    INDEX 01 00:02:23
  TRACK 04 AUDIO
    TITLE "P1Q_t_1101-1109_04"
    INDEX 01 00:03:30
  TRACK 05 AUDIO
    TITLE "P1Q_t_1101-1109_05"
    INDEX 01 00:03:73
  TRACK 06 AUDIO
    TITLE "P1Q_t_1101-1109_06"
    INDEX 01 00:05:15
  TRACK 07 AUDIO
    TITLE "P1Q_t_1101-1109_07"
    INDEX 01 00:05:43
  TRACK 08 AUDIO
    TITLE "P1Q_t_1101-1109_08"
    INDEX 01 00:06:66
  TRACK 09 AUDIO
    TITLE "P1Q_t_1101-1109_09"
    INDEX 01 00:07:10
  TRACK 10 AUDIO
    TITLE "P1Q_t_1101-1109_10"
    INDEX 01 00:11:04
  TRACK 11 AUDIO
    TITLE "P1Q_t_1101-1109_11"
    INDEX 01 00:11:49
  TRACK 12 AUDIO
    TITLE "P1Q_t_1101-1109_12"
    INDEX 01 00:12:55
  TRACK 13 AUDIO
    TITLE "P1Q_t_1101-1109_13"
    INDEX 01 00:12:74
  TRACK 14 AUDIO
    TITLE "P1Q_t_1101-1109_14"
    INDEX 01 00:14:55
  TRACK 15 AUDIO
    TITLE "P1Q_t_1101-1109_15"
    INDEX 01 00:14:75
  TRACK 16 AUDIO
    TITLE "P1Q_t_1101-1109_16"
    INDEX 01 00:18:22
  TRACK 17 AUDIO
    TITLE "P1Q_t_1101-1109_17"
    INDEX 01 00:18:67
  TRACK 18 AUDIO
    TITLE "P1Q_t_1101-1109_18"
    INDEX 01 00:20:17
  TRACK 19 AUDIO
    TITLE "P1Q_t_1101-1109_19"
    INDEX 01 00:20:38
  TRACK 20 AUDIO
    TITLE "P1Q_t_1101-1109_20"
    INDEX 01 00:23:15
  TRACK 21 AUDIO
    TITLE "P1Q_t_1101-1109_21"
    INDEX 01 00:23:35
  TRACK 22 AUDIO
    TITLE "P1Q_t_1101-1109_22"
    INDEX 01 00:26:21
  TRACK 23 AUDIO
    TITLE "P1Q_t_1101-1109_23"
    INDEX 01 00:26:66
  TRACK 24 AUDIO
    TITLE "P1Q_t_1101-1109_24"
    INDEX 01 00:28:13
  TRACK 25 AUDIO
    TITLE "P1Q_t_1101-1109_25"
    INDEX 01 00:28:30
  TRACK 26 AUDIO
    TITLE "P1Q_t_1101-1109_26"
    INDEX 01 00:33:04
  TRACK 27 AUDIO
    TITLE "P1Q_t_1101-1109_27"
    INDEX 01 00:33:23
  TRACK 28 AUDIO
    TITLE "P1Q_t_1101-1109_28"
    INDEX 01 00:36:18
  TRACK 29 AUDIO
    TITLE "P1Q_t_1101-1109_29"
    INDEX 01 00:36:65
  TRACK 30 AUDIO
    TITLE "P1Q_t_1101-1109_30"
    INDEX 01 00:37:74
  TRACK 31 AUDIO
    TITLE "P1Q_t_1101-1109_31"
    INDEX 01 00:38:21
  TRACK 32 AUDIO
    TITLE "P1Q_t_1101-1109_32"
    INDEX 01 00:41:13
  TRACK 33 AUDIO
    TITLE "P1Q_t_1101-1109_33"
    INDEX 01 00:41:31
  TRACK 34 AUDIO
    TITLE "P1Q_t_1101-1109_34"
    INDEX 01 00:46:03
  TRACK 35 AUDIO
    TITLE "P1Q_t_1101-1109_35"
    INDEX 01 00:46:48
  TRACK 36 AUDIO
    TITLE "P1Q_t_1101-1109_36"
    INDEX 01 00:47:63
  TRACK 37 AUDIO
    TITLE "P1Q_t_1101-1109_37"
    INDEX 01 00:48:09
  TRACK 38 AUDIO
    TITLE "P1Q_t_1101-1109_38"
    INDEX 01 00:49:56
  TRACK 39 AUDIO
    TITLE "P1Q_t_1101-1109_39"
    INDEX 01 00:49:75
  TRACK 40 AUDIO
    TITLE "P1Q_t_1101-1109_40"
    INDEX 01 00:53:75
  TRACK 41 AUDIO
    TITLE "P1Q_t_1101-1109_41"
    INDEX 01 00:54:47
  TRACK 42 AUDIO
    TITLE "P1Q_t_1101-1109_42"
    INDEX 01 00:55:54
  TRACK 43 AUDIO
    TITLE "P1Q_t_1101-1109_43"
    INDEX 01 00:56:07
  TRACK 44 AUDIO
    TITLE "P1Q_t_1101-1109_44"
    INDEX 01 01:00:60
  TRACK 45 AUDIO
    TITLE "P1Q_t_1101-1109_45"
    INDEX 01 01:01:04
  TRACK 46 AUDIO
    TITLE "P1Q_t_1101-1109_46"
    INDEX 01 01:05:06
  TRACK 47 AUDIO
    TITLE "P1Q_t_1101-1109_47"
    INDEX 01 01:05:51
  TRACK 48 AUDIO
    TITLE "P1Q_t_1101-1109_48"
    INDEX 01 01:07:07
  TRACK 49 AUDIO
    TITLE "P1Q_t_1101-1109_49"
    INDEX 01 01:07:28
  TRACK 50 AUDIO
    TITLE "P1Q_t_1101-1109_50"
    INDEX 01 01:10:52
  TRACK 51 AUDIO
    TITLE "P1Q_t_1101-1109_51"
    INDEX 01 01:10:72
  TRACK 52 AUDIO
    TITLE "P1Q_t_1101-1109_52"
    INDEX 01 01:15:53
  TRACK 53 AUDIO
    TITLE "P1Q_t_1101-1109_53"
    INDEX 01 01:16:23
  TRACK 54 AUDIO
    TITLE "P1Q_t_1101-1109_54"
    INDEX 01 01:17:31
  TRACK 55 AUDIO
    TITLE "P1Q_t_1101-1109_55"
    INDEX 01 01:17:52
  TRACK 56 AUDIO
    TITLE "P1Q_t_1101-1109_56"
    INDEX 01 01:21:17
  TRACK 57 AUDIO
    TITLE "P1Q_t_1101-1109_57"
    INDEX 01 01:21:34
  TRACK 58 AUDIO
    TITLE "P1Q_t_1101-1109_58"
    INDEX 01 01:25:32
